<svg width="37" height="37" viewBox="0 0 37 37" fill="none" xmlns="http://www.w3.org/2000/svg">
<path d="M16.7082 9.54158H20.2916C21.2419 9.54158 22.1534 9.91911 22.8254 10.5911C23.4974 11.2631 23.8749 12.1746 23.8749 13.1249V14.9166H20.2916V13.1249H16.7082V23.8749H20.2916V22.0832H23.8749V23.8749C23.8749 24.8253 23.4974 25.7367 22.8254 26.4087C22.1534 27.0807 21.2419 27.4582 20.2916 27.4582H16.7082C15.7579 27.4582 14.8465 27.0807 14.1745 26.4087C13.5024 25.7367 13.1249 24.8253 13.1249 23.8749V13.1249C13.1249 12.1746 13.5024 11.2631 14.1745 10.5911C14.8465 9.91911 15.7579 9.54158 16.7082 9.54158ZM18.4999 0.583252C20.8528 0.583252 23.1826 1.04668 25.3563 1.94708C27.5301 2.84747 29.5052 4.16721 31.1689 5.83092C32.8326 7.49464 34.1524 9.46975 35.0528 11.6435C35.9532 13.8173 36.4166 16.1471 36.4166 18.4999C36.4166 23.2517 34.5289 27.8089 31.1689 31.1689C27.8089 34.5289 23.2517 36.4166 18.4999 36.4166C16.1471 36.4166 13.8173 35.9532 11.6435 35.0528C9.46975 34.1524 7.49464 32.8326 5.83092 31.1689C2.47089 27.8089 0.583252 23.2517 0.583252 18.4999C0.583252 13.7481 2.47089 9.19095 5.83092 5.83092C9.19095 2.47089 13.7481 0.583252 18.4999 0.583252V0.583252ZM18.4999 4.16658C14.6985 4.16658 11.0527 5.6767 8.36472 8.36472C5.6767 11.0527 4.16658 14.6985 4.16658 18.4999C4.16658 22.3014 5.6767 25.9471 8.36472 28.6351C11.0527 31.3231 14.6985 32.8332 18.4999 32.8332C22.3014 32.8332 25.9471 31.3231 28.6351 28.6351C31.3231 25.9471 32.8332 22.3014 32.8332 18.4999C32.8332 14.6985 31.3231 11.0527 28.6351 8.36472C25.9471 5.6767 22.3014 4.16658 18.4999 4.16658V4.16658Z" fill="white"/>
</svg>
