<svg width="38" height="38" viewBox="0 0 38 38" fill="none" xmlns="http://www.w3.org/2000/svg">
<path d="M36.25 0.25H1.75C0.920312 0.25 0.25 0.920312 0.25 1.75V36.25C0.25 37.0797 0.920312 37.75 1.75 37.75H36.25C37.0797 37.75 37.75 37.0797 37.75 36.25V1.75C37.75 0.920312 37.0797 0.25 36.25 0.25ZM31.9187 11.1953H28.9234C26.575 11.1953 26.1203 12.3109 26.1203 13.9516V17.5656H31.7266L30.9953 23.2234H26.1203V37.75H20.275V23.2281H15.3859V17.5656H20.275V13.3937C20.275 8.55156 23.2328 5.9125 27.5547 5.9125C29.6266 5.9125 31.4031 6.06719 31.9234 6.1375V11.1953H31.9187Z" fill="#F1AC33"/>
</svg>
