<svg width="35" height="25" viewBox="0 0 35 25" fill="none" xmlns="http://www.w3.org/2000/svg">
<path d="M34.8269 21.725V3.27495C34.8269 1.57345 33.4869 0.199951 31.8269 0.199951H3.80689C2.14688 0.199951 0.806885 1.57345 0.806885 3.27495V21.725C0.806885 23.4265 2.14688 24.8 3.80689 24.8H31.8269C33.4869 24.8 34.8269 23.4265 34.8269 21.725ZM32.2069 3.04945C32.8669 3.72595 32.5069 4.42295 32.1469 4.77145L24.0269 12.3975L31.8269 20.7205C32.0669 21.0075 32.2269 21.4585 31.9469 21.766C31.6869 22.094 31.0869 22.0735 30.8269 21.8685L22.0869 14.222L17.8069 18.2195L13.5469 14.222L4.80689 21.8685C4.54689 22.0735 3.94689 22.094 3.68689 21.766C3.40689 21.4585 3.56689 21.0075 3.80689 20.7205L11.6069 12.3975L3.48688 4.77145C3.12688 4.42295 2.76688 3.72595 3.42688 3.04945C4.08689 2.37295 4.76689 2.70095 5.32689 3.19295L17.8069 13.525L30.3069 3.19295C30.8669 2.70095 31.5469 2.37295 32.2069 3.04945V3.04945Z" fill="#201E1E"/>
</svg>
