<svg width="38" height="38" viewBox="0 0 38 38" fill="none" xmlns="http://www.w3.org/2000/svg">
<path d="M37.1995 11.6859C37.1792 10.1607 36.8932 8.65069 36.3543 7.22339C35.8871 6.01946 35.1734 4.92608 34.2589 4.0131C33.3444 3.10012 32.2492 2.38763 31.0433 1.92114C29.632 1.39224 28.141 1.10625 26.6338 1.07536C24.6934 0.988765 24.0781 0.9646 19.1523 0.9646C14.2265 0.9646 13.5952 0.9646 11.6688 1.07536C10.1623 1.10648 8.67207 1.39246 7.2614 1.92114C6.05528 2.3873 4.95991 3.09968 4.04537 4.0127C3.13083 4.92572 2.41726 6.01927 1.95032 7.22339C1.41948 8.63128 1.13363 10.1194 1.10515 11.6235C1.01841 13.5627 0.992188 14.1769 0.992188 19.0945C0.992188 24.0122 0.992187 24.6405 1.10515 26.5656C1.1354 28.0719 1.41982 29.5581 1.95032 30.9697C2.41805 32.1735 3.13214 33.2666 4.04699 34.1792C4.96183 35.0918 6.05731 35.8039 7.26342 36.27C8.67023 36.8201 10.1608 37.1266 11.6708 37.1761C13.6133 37.2627 14.2285 37.2889 19.1543 37.2889C24.0802 37.2889 24.7115 37.2889 26.6379 37.1761C28.145 37.1465 29.636 36.8612 31.0473 36.3324C32.2529 35.8653 33.3478 35.1527 34.2623 34.2398C35.1767 33.3269 35.8906 32.2337 36.3584 31.0301C36.8889 29.6205 37.1733 28.1343 37.2035 26.626C37.2903 24.6888 37.3165 24.0746 37.3165 19.155C37.3125 14.2373 37.3125 13.6131 37.1995 11.6859V11.6859ZM19.1402 28.3941C13.9885 28.3941 9.81508 24.2276 9.81508 19.0845C9.81508 13.9413 13.9885 9.77483 19.1402 9.77483C21.6134 9.77483 23.9853 10.7557 25.7341 12.5016C27.4829 14.2475 28.4654 16.6154 28.4654 19.0845C28.4654 21.5535 27.4829 23.9215 25.7341 25.6674C23.9853 27.4133 21.6134 28.3941 19.1402 28.3941V28.3941ZM28.8365 11.6013C27.6323 11.6013 26.6621 10.6307 26.6621 9.43047C26.6621 9.14553 26.7183 8.86337 26.8275 8.60012C26.9367 8.33686 27.0968 8.09766 27.2987 7.89617C27.5005 7.69468 27.7401 7.53485 28.0038 7.42581C28.2675 7.31677 28.5501 7.26064 28.8355 7.26064C29.1209 7.26064 29.4036 7.31677 29.6673 7.42581C29.931 7.53485 30.1706 7.69468 30.3724 7.89617C30.5742 8.09766 30.7343 8.33686 30.8435 8.60012C30.9528 8.86337 31.009 9.14553 31.009 9.43047C31.009 10.6307 30.0367 11.6013 28.8365 11.6013Z" fill="#F1AC33"/>
</svg>
