<svg width="38" height="38" viewBox="0 0 38 38" fill="none" xmlns="http://www.w3.org/2000/svg">
<path d="M36.25 0.25H1.75C0.920312 0.25 0.25 0.920312 0.25 1.75V36.25C0.25 37.0797 0.920312 37.75 1.75 37.75H36.25C37.0797 37.75 37.75 37.0797 37.75 36.25V1.75C37.75 0.920312 37.0797 0.25 36.25 0.25ZM11.3734 32.2047H5.80938V14.3078H11.3734V32.2047ZM8.59375 11.8609C7.95591 11.8609 7.33238 11.6718 6.80204 11.3174C6.27169 10.9631 5.85833 10.4594 5.61424 9.87009C5.37015 9.2808 5.30628 8.63236 5.43072 8.00677C5.55515 7.38118 5.86231 6.80654 6.31333 6.35552C6.76436 5.90449 7.339 5.59734 7.96458 5.4729C8.59017 5.34847 9.23861 5.41233 9.8279 5.65643C10.4172 5.90052 10.9209 6.31388 11.2752 6.84422C11.6296 7.37457 11.8187 7.99809 11.8187 8.63594C11.8141 10.4172 10.3703 11.8609 8.59375 11.8609ZM32.2047 32.2047H26.6453V23.5C26.6453 21.4234 26.6078 18.7562 23.7531 18.7562C20.8609 18.7562 20.4156 21.0156 20.4156 23.35V32.2047H14.8609V14.3078H20.1953V16.7547H20.2703C21.0109 15.3484 22.825 13.8625 25.5344 13.8625C31.1688 13.8625 32.2047 17.5703 32.2047 22.3891V32.2047V32.2047Z" fill="#F1AC33"/>
</svg>
