<svg width="25" height="35" viewBox="0 0 25 35" fill="none" xmlns="http://www.w3.org/2000/svg">
<path d="M12.3595 0.240967C5.7852 0.240967 0.468018 5.5377 0.468018 12.0867C0.468018 20.971 12.3595 34.0859 12.3595 34.0859C12.3595 34.0859 24.251 20.971 24.251 12.0867C24.251 5.5377 18.9338 0.240967 12.3595 0.240967ZM12.3595 16.3173C11.2331 16.3173 10.1529 15.8716 9.35644 15.0782C8.55998 14.2848 8.11253 13.2087 8.11253 12.0867C8.11253 10.9647 8.55998 9.8886 9.35644 9.0952C10.1529 8.30181 11.2331 7.85608 12.3595 7.85608C13.4859 7.85608 14.5661 8.30181 15.3625 9.0952C16.159 9.8886 16.6064 10.9647 16.6064 12.0867C16.6064 13.2087 16.159 14.2848 15.3625 15.0782C14.5661 15.8716 13.4859 16.3173 12.3595 16.3173V16.3173Z" fill="#201E1E"/>
</svg>
