<svg width="39" height="34" viewBox="0 0 39 34" fill="none" xmlns="http://www.w3.org/2000/svg">
<path d="M34.125 31.7333V32.8667C34.125 33.1736 34.0044 33.4392 33.7632 33.6635C33.522 33.8878 33.2363 34 32.9062 34H30.4688C30.1387 34 29.853 33.8878 29.6118 33.6635C29.3706 33.4392 29.25 33.1736 29.25 32.8667V31.7333H9.75V32.8667C9.75 33.1736 9.62939 33.4392 9.38818 33.6635C9.14697 33.8878 8.86133 34 8.53125 34H6.09375C5.76367 34 5.47803 33.8878 5.23682 33.6635C4.99561 33.4392 4.875 33.1736 4.875 32.8667V31.7333C3.5293 31.7333 2.38037 31.2906 1.42822 30.4052C0.476074 29.5198 0 28.4514 0 27.2V24.9333C0 23.2806 0.463379 21.5747 1.39014 19.8156C2.31689 18.0566 3.54834 16.5809 5.08447 15.3885C6.62061 14.1962 8.17578 13.6 9.75 13.6C10.4102 13.6 10.9814 13.3816 11.4639 12.9448C11.9463 12.508 12.1875 11.9708 12.1875 11.3333V9.06667C12.1875 8.45278 12.4224 7.92153 12.8921 7.47292C13.3618 7.02431 13.9395 6.8 14.625 6.8C15.3105 6.8 15.8882 7.02431 16.3579 7.47292C16.8276 7.92153 17.0625 8.45278 17.0625 9.06667H21.9375C21.9375 8.45278 22.1724 7.92153 22.6421 7.47292C23.1118 7.02431 23.6895 6.8 24.375 6.8C25.0605 6.8 25.6382 7.02431 26.1079 7.47292C26.5776 7.92153 26.8125 8.45278 26.8125 9.06667V11.3333C26.8125 11.9708 27.0474 12.508 27.5171 12.9448C27.9868 13.3816 28.5645 13.6 29.25 13.6C30.8242 13.6 32.3794 14.1962 33.9155 15.3885C35.4517 16.5809 36.6831 18.0566 37.6099 19.8156C38.5366 21.5747 39 23.2806 39 24.9333V27.2C39 28.4514 38.5239 29.5198 37.5718 30.4052C36.6196 31.2906 35.4707 31.7333 34.125 31.7333ZM19.5 15.8667C17.4688 15.8667 15.7422 16.5337 14.3203 17.8677C12.8984 19.2017 12.1875 20.8073 12.1875 22.6844C12.1875 24.5615 12.8984 26.1611 14.3203 27.4833C15.7422 28.8056 17.4688 29.4667 19.5 29.4667C21.5312 29.4667 23.2578 28.8056 24.6797 27.4833C26.1016 26.1611 26.8125 24.5556 26.8125 22.6667C26.8125 20.7778 26.1016 19.1722 24.6797 17.85C23.2578 16.5278 21.5312 15.8667 19.5 15.8667ZM19.5 27.2C18.1543 27.2 17.0054 26.7573 16.0532 25.8719C15.1011 24.9865 14.625 23.9181 14.625 22.6667C14.625 21.4153 15.1011 20.3469 16.0532 19.4615C17.0054 18.576 18.1543 18.1333 19.5 18.1333C20.8457 18.1333 21.9946 18.576 22.9468 19.4615C23.8989 20.3469 24.375 21.4153 24.375 22.6667C24.375 23.9181 23.8989 24.9865 22.9468 25.8719C21.9946 26.7573 20.8457 27.2 19.5 27.2ZM34.125 11.3333H32.8872L31.8018 11.2979L30.7544 11.1917L29.9927 10.9969L29.4214 10.6781L29.25 10.2V6.55208C28.6152 6.03264 27.3457 5.56632 25.4414 5.15312C23.5371 4.73993 21.5566 4.53333 19.5 4.53333C17.4434 4.53333 15.4629 4.73993 13.5586 5.15312C11.6543 5.56632 10.3848 6.03264 9.75 6.55208V10.2C9.75 10.3889 9.69287 10.5483 9.57861 10.6781C9.46436 10.808 9.27393 10.9142 9.00732 10.9969C8.74072 11.0795 8.48682 11.1444 8.24561 11.1917C8.00439 11.2389 7.65527 11.2743 7.19824 11.2979C6.74121 11.3215 6.37939 11.3333 6.11279 11.3333H3.54199L2.4375 11.2979L1.40918 11.1917L0.685547 10.9969L0.152344 10.6781L0 10.2V7.11875C0 5.65486 0.882324 4.37396 2.64697 3.27604C4.41162 2.17812 6.75391 1.35764 9.67383 0.814583C12.5937 0.271528 15.8691 0 19.5 0C23.1309 0 26.4063 0.271528 29.3262 0.814583C32.2461 1.35764 34.5884 2.17812 36.353 3.27604C38.1177 4.37396 39 5.65486 39 7.11875V10.2C39 10.3889 38.9492 10.5483 38.8477 10.6781C38.7461 10.808 38.5684 10.9142 38.3145 10.9969C38.0605 11.0795 37.8193 11.1444 37.5908 11.1917C37.3623 11.2389 37.0195 11.2743 36.5625 11.2979C36.1055 11.3215 35.7373 11.3333 35.458 11.3333H34.125Z" fill="#201E1E"/>
</svg>
