<svg width="38" height="38" viewBox="0 0 38 38" fill="none" xmlns="http://www.w3.org/2000/svg">
<path d="M36.25 0.25H1.75C0.920312 0.25 0.25 0.920312 0.25 1.75V36.25C0.25 37.0797 0.920312 37.75 1.75 37.75H36.25C37.0797 37.75 37.75 37.0797 37.75 36.25V1.75C37.75 0.920312 37.0797 0.25 36.25 0.25ZM29.0922 13.8297C29.1062 14.05 29.1062 14.2797 29.1062 14.5047C29.1062 21.3859 23.8656 29.3125 14.2891 29.3125C11.3359 29.3125 8.59844 28.4547 6.29219 26.9781C6.71406 27.025 7.11719 27.0437 7.54844 27.0437C9.98594 27.0437 12.2266 26.2188 14.0125 24.8219C11.725 24.775 9.80312 23.275 9.14687 21.2125C9.94844 21.3297 10.6703 21.3297 11.4953 21.1188C10.3175 20.8795 9.25879 20.2398 8.49914 19.3084C7.73949 18.377 7.32572 17.2113 7.32812 16.0094V15.9437C8.01719 16.3328 8.82813 16.5719 9.67656 16.6047C8.96332 16.1293 8.3784 15.4854 7.97365 14.7298C7.5689 13.9743 7.35683 13.1306 7.35625 12.2734C7.35625 11.3031 7.60938 10.4172 8.06406 9.64844C9.37142 11.2578 11.0028 12.5741 12.8522 13.5117C14.7016 14.4493 16.7275 14.9873 18.7984 15.0906C18.0625 11.5516 20.7063 8.6875 23.8844 8.6875C25.3844 8.6875 26.7344 9.31562 27.6859 10.3281C28.8625 10.1078 29.9875 9.66719 30.9906 9.07656C30.6016 10.2812 29.7859 11.2984 28.7031 11.9406C29.7531 11.8281 30.7656 11.5375 31.7031 11.1297C30.9953 12.1703 30.1094 13.0938 29.0922 13.8297V13.8297Z" fill="#F1AC33"/>
</svg>
